<svg width="20" height="20" viewBox="0 0 20 20" fill="none" xmlns="http://www.w3.org/2000/svg">
<g clip-path="url(#clip0)">
<path d="M9.87214 8.43C12.2 8.43 14.0872 6.54279 14.0872 4.21491C14.0872 1.88703 12.2 0 9.87214 0C7.54426 0 5.65723 1.88721 5.65723 4.21509C5.65984 6.54175 7.54548 8.42739 9.87214 8.43ZM9.87214 0.892857C11.707 0.892857 13.1944 2.3802 13.1944 4.21509C13.1944 6.0498 11.707 7.53714 9.87214 7.53714C8.03742 7.53714 6.55008 6.0498 6.55008 4.21509C6.55218 2.38107 8.03829 0.89495 9.87214 0.892857Z" fill="white"/>
<path d="M9.98228 9.91455C5.65175 9.91281 2.14083 13.4239 2.14258 17.7543V19.5534C2.14258 19.8 2.34243 19.9998 2.58901 19.9998H17.3756C17.6221 19.9998 17.822 19.8 17.822 19.5534V17.7543C17.8239 13.4239 14.3128 9.91281 9.98228 9.91455ZM16.9291 19.107H3.03544V17.7543C3.02916 15.2682 4.35188 12.9684 6.5038 11.7235C8.65573 10.4787 11.3088 10.4787 13.4609 11.7235C15.6129 12.9684 16.9356 15.2682 16.9291 17.7543V19.107Z" fill="white"/>
</g>
<defs>
<clipPath id="clip0">
<rect width="20" height="20" fill="white"/>
</clipPath>
</defs>
</svg>
