<svg width="10" height="10" viewBox="0 0 10 10" fill="none" xmlns="http://www.w3.org/2000/svg">
<path d="M9.51755 4.59766H0.402154C0.180042 4.59766 0 4.77782 0 4.99982C0 5.22182 0.180022 5.40198 0.402154 5.40198H9.51755C9.73966 5.40198 9.91971 5.22195 9.91971 4.99982C9.91971 4.77768 9.73968 4.59766 9.51755 4.59766Z" fill="#D5B8CD"/>
<path d="M9.8823 4.71556L5.94136 0.774469C5.78425 0.617495 5.52983 0.617495 5.37272 0.774469C5.2156 0.931581 5.2156 1.18627 5.37272 1.34325L9.02934 5L5.37272 8.65676C5.2156 8.81374 5.2156 9.06843 5.37272 9.22541C5.45127 9.30396 5.55409 9.34324 5.65704 9.34324C5.75999 9.34324 5.8628 9.30396 5.94136 9.22541L9.8823 5.28434C10.0394 5.12722 10.0394 4.87251 9.8823 4.71556Z" fill="#D5B8CD"/>
</svg>
