<svg width="20" height="20" viewBox="0 0 20 20" fill="none" xmlns="http://www.w3.org/2000/svg">
<g clip-path="url(#clip0)">
<path d="M7.29385 15.6133C6.08254 15.6133 5.10059 16.5954 5.10059 17.8067C5.10077 19.018 6.08273 19.9998 7.29404 19.9998C8.50535 19.9998 9.48731 19.0179 9.48731 17.8065C9.48582 16.5958 8.5046 15.6146 7.29385 15.6133ZM7.29385 19.0474C6.60858 19.0474 6.05297 18.4918 6.05297 17.8064C6.05315 17.1211 6.60858 16.5657 7.29404 16.5657C7.97931 16.5657 8.53492 17.1213 8.53492 17.8065C8.53399 18.4916 7.97893 19.0467 7.29385 19.0474Z" fill="white"/>
<path d="M15.9257 15.6133C14.7144 15.6133 13.7324 16.5952 13.7324 17.8065C13.7324 19.0179 14.7144 19.9998 15.9257 19.9998C17.137 19.9998 18.119 19.0179 18.119 17.8065C18.1175 16.5958 17.1364 15.6148 15.9257 15.6133ZM15.9257 19.0474C15.2402 19.0474 14.6848 18.4918 14.6848 17.8065C14.6848 17.1211 15.2404 16.5657 15.9257 16.5657C16.611 16.5657 17.1666 17.1213 17.1666 17.8065C17.1658 18.4916 16.6106 19.0467 15.9257 19.0474Z" fill="white"/>
<path d="M19.489 3.8895H4.55733L4.23348 1.98251C4.0417 0.836312 3.0484 -0.00241293 1.88639 5.2154e-06H0.524041C0.261021 5.2154e-06 0.0478516 0.213174 0.0478516 0.476194C0.0478516 0.739214 0.261021 0.952383 0.524041 0.952383H1.8862C2.58356 0.950895 3.17954 1.45424 3.29468 2.14193L5.01882 12.2996C5.21078 13.446 6.20427 14.2849 7.36647 14.2821H17.5175C17.7803 14.2821 17.9937 14.069 17.9937 13.8059C17.9937 13.5429 17.7803 13.3298 17.5175 13.3298H7.36628C6.66911 13.3314 6.07313 12.8281 5.95799 12.1404L5.78463 11.119H15.7381C16.9805 11.1218 18.0815 10.3188 18.4585 9.13502L19.9423 4.51115C19.9888 4.36625 19.9633 4.20795 19.8737 4.085C19.784 3.96205 19.6412 3.8895 19.489 3.8895ZM17.5517 8.8441C17.3002 9.63334 16.5662 10.1685 15.7379 10.1666H5.62299L4.71897 4.84188H18.8359L17.5517 8.8441Z" fill="white"/>
</g>
<defs>
<clipPath id="clip0">
<rect width="20" height="20" fill="white"/>
</clipPath>
</defs>
</svg>
