<svg width="20" height="20" viewBox="0 0 20 20" fill="none" xmlns="http://www.w3.org/2000/svg">
<path d="M19.4294 0.89209H1.57057C1.25676 0.89209 1 1.20709 1 1.59209C1 1.97709 1.25676 2.29209 1.57057 2.29209H19.4294C19.7432 2.29209 20 1.97709 20 1.59209C20 1.20709 19.7432 0.89209 19.4294 0.89209Z" fill="white"/>
<path d="M19.3993 6.29199H6.24611C5.91578 6.29199 5.64551 6.60699 5.64551 6.99199C5.64551 7.37699 5.91578 7.69199 6.24611 7.69199H19.3993C19.7296 7.69199 19.9999 7.37699 19.9999 6.99199C19.9999 6.60699 19.7296 6.29199 19.3993 6.29199Z" fill="white"/>
<path d="M19.4294 11.6919H1.57057C1.25676 11.6919 1 12.0069 1 12.3919C1 12.7769 1.25676 13.0919 1.57057 13.0919H19.4294C19.7432 13.0919 20 12.7769 20 12.3919C20 12.0069 19.7432 11.6919 19.4294 11.6919Z" fill="white"/>
<path d="M19.3991 17.0918H10.9307C10.6003 17.0918 10.3301 17.4068 10.3301 17.7918C10.3301 18.1768 10.6003 18.4918 10.9307 18.4918H19.3991C19.7295 18.4918 19.9997 18.1768 19.9997 17.7918C19.9997 17.4068 19.7295 17.0918 19.3991 17.0918Z" fill="white"/>
</svg>
