<svg width="60" height="60" viewBox="0 0 60 60" fill="none" xmlns="http://www.w3.org/2000/svg">
<path d="M49.7343 6.86923H45.611V4.25319C45.611 3.561 45.05 3 44.3578 3C43.6661 3 43.1046 3.561 43.1046 4.25319V6.86972H15.8957V4.25319C15.8957 3.561 15.3347 3 14.6425 3C13.9503 3 13.3893 3.561 13.3893 4.25319V6.86972H9.26597C5.80696 6.87364 3.00392 9.67668 3 13.1357V51.734C3.00392 55.1926 5.80696 57.9956 9.26597 58H40.025C40.3432 58 40.6487 57.8791 40.8812 57.6622L55.6028 43.9016C55.8564 43.6642 56.0003 43.3327 56.0003 42.9857V13.1352C55.9964 9.67619 53.1933 6.87315 49.7343 6.86923ZM9.26646 9.37562H13.3893V13.1264C13.3893 13.8186 13.9503 14.3796 14.6425 14.3796C15.3347 14.3796 15.8957 13.8186 15.8957 13.1264V9.37562H43.1051V13.1264C43.1051 13.8186 43.6661 14.3796 44.3583 14.3796C45.0505 14.3796 45.6115 13.8186 45.6115 13.1264V9.37562H49.7348C51.8099 9.37807 53.4919 11.0601 53.4944 13.1352V20.5799H5.50688V13.1352C5.50883 11.0601 7.19085 9.37807 9.26646 9.37562ZM5.50688 51.7335V23.0863H53.4939V41.7829H43.5496C40.7823 41.7858 38.5403 44.0284 38.5368 46.7957V55.4926H9.26646C7.19134 55.4902 5.50932 53.8087 5.50688 51.7335ZM51.5172 44.2898L41.0432 54.0799V46.7957C41.0447 45.4118 42.1662 44.2908 43.5496 44.2893L51.5172 44.2898Z" fill="#E6C643"/>
</svg>
