<svg width="30" height="30" viewBox="0 0 30 30" fill="none" xmlns="http://www.w3.org/2000/svg">
<path d="M26.6325 5.79781H21.7601L21.0146 4.15886C20.4666 2.95846 19.2694 2.18765 17.9498 2.18555H11.6934C10.3735 2.18739 9.17601 2.95846 8.62803 4.15886L7.88274 5.79781H3.36734C1.50846 5.79992 0.00210459 7.30628 0 9.16515V24.41C0.00210459 26.2689 1.50846 27.7752 3.36734 27.7774H26.6325C28.4914 27.7752 29.9978 26.2689 29.9999 24.41V9.16515C29.9978 7.30628 28.4914 5.79992 26.6325 5.79781ZM28.6529 24.41C28.6516 25.5254 27.748 26.4291 26.6325 26.4304H3.36734C2.25191 26.4291 1.34825 25.5254 1.34694 24.41V9.16515C1.34825 8.04972 2.25191 7.14606 3.36734 7.14475H8.31629C8.58041 7.14475 8.81981 6.99032 8.92925 6.75014L9.85395 4.71632C10.1831 3.99602 10.9015 3.53354 11.6934 3.53248H17.9498C18.7414 3.5338 19.4596 3.99628 19.7884 4.71658L20.7131 6.7504C20.8225 6.99059 21.0622 7.14501 21.3261 7.14501H26.6323C27.7474 7.14633 28.6514 8.05025 28.6527 9.16542L28.6529 24.41Z" fill="black"/>
<path d="M14.8208 8.07812C10.2867 8.07812 6.61133 11.7538 6.61133 16.2879C6.61133 20.8217 10.2867 24.4973 14.8208 24.4973C19.3549 24.4973 23.0305 20.8217 23.0305 16.2879C23.0253 11.7559 19.3528 8.08339 14.8208 8.07812ZM14.8208 23.1504C11.0307 23.1504 7.95827 20.078 7.95827 16.2879C7.95827 12.4978 11.0307 9.42506 14.8208 9.42506C18.6109 9.42506 21.6836 12.4978 21.6836 16.2879C21.6791 20.0761 18.6093 23.1462 14.8208 23.1504Z" fill="black"/>
<path d="M14.822 12.6562C12.8158 12.6562 11.1895 14.2826 11.1895 16.2888C11.1895 18.2952 12.8158 19.9216 14.822 19.9216C16.8284 19.9216 18.4548 18.2952 18.4548 16.2888C18.4524 14.2836 16.8274 12.6584 14.822 12.6562ZM14.822 18.5746C13.5597 18.5746 12.5364 17.5513 12.5364 16.289C12.5364 15.0265 13.5597 14.0032 14.822 14.0032C16.0845 14.0032 17.1078 15.0265 17.1078 16.289C17.1062 17.5507 16.0839 18.5733 14.822 18.5746Z" fill="black"/>
</svg>
