<svg width="60" height="60" viewBox="0 0 60 60" fill="none" xmlns="http://www.w3.org/2000/svg">
<path d="M46.735 20.8942C43.8985 20.8485 42.0004 19.424 41.8994 17.2648C41.8673 16.5788 41.3019 16.0396 40.6155 16.0396H13.019C12.3326 16.0396 11.7671 16.5788 11.735 17.2648C11.6341 19.4235 9.71139 20.8475 6.83715 20.8942C6.13516 20.9053 5.57227 21.4777 5.57227 22.1797V31.5195C5.57227 32.2215 6.13516 32.7939 6.83715 32.8049C9.75809 32.8521 11.6346 34.2421 11.735 36.4329C11.7661 37.1193 12.332 37.6596 13.019 37.6596H40.5537C41.2401 37.6596 41.8055 37.1198 41.8377 36.4344C41.9391 34.2757 43.8613 32.8516 46.7355 32.8049C47.4375 32.7939 48.0004 32.2215 48.0004 31.5195V22.1792C48.0004 21.4772 47.437 20.9053 46.735 20.8942ZM45.429 30.3279C43.8548 30.5403 42.4885 31.1062 41.4269 31.992C40.4598 32.7909 39.7689 33.874 39.453 35.0882H14.1272C13.493 32.5318 11.258 30.7482 8.14371 30.3279V23.3713C9.71792 23.1584 11.0842 22.593 12.1458 21.7067C13.1129 20.9083 13.8038 19.8247 14.1197 18.6105H39.5153C40.0948 20.8701 42.0089 22.9188 45.429 23.3728V30.3279Z" fill="#E6C643"/>
<path d="M26.787 20.0938C23.0556 20.0938 20.0312 23.1186 20.0312 26.8495C20.0312 30.5804 23.0556 33.6048 26.787 33.6048C30.5179 33.6048 33.5423 30.5804 33.5423 26.8495C33.5383 23.1201 30.5159 20.0983 26.787 20.0938ZM26.787 31.0333C24.4757 31.0333 22.6022 29.1599 22.6022 26.8485C22.6022 24.5377 24.4762 22.6642 26.787 22.6642C29.0984 22.6647 30.9713 24.5382 30.9713 26.8495C30.9688 29.1594 29.0968 31.0313 26.787 31.0338V31.0333Z" fill="#E6C643"/>
<path d="M55.3145 16.9366H53.5726V15.1947C53.5696 12.6082 51.4737 10.5118 48.8872 10.5093H4.68545C2.09894 10.5118 0.00301283 12.6082 0 15.1947V38.504C0.00301283 41.0905 2.09894 43.1864 4.68545 43.1894H6.42737V44.9314C6.43038 47.5179 8.52631 49.6138 11.1128 49.6168H55.3145C57.9011 49.6138 59.997 47.5179 60 44.9314V21.6221C59.997 19.0356 57.9011 16.9392 55.3145 16.9366ZM2.57095 38.504V15.1947C2.57245 14.0273 3.51798 13.0812 4.68545 13.0802H48.8872C50.0546 13.0812 51.0002 14.0273 51.0017 15.1947V38.504C51.0002 39.671 50.0546 40.617 48.8872 40.6185H4.68545C3.51798 40.617 2.57245 39.671 2.57095 38.504ZM57.429 44.9314C57.4275 46.0983 56.482 47.0443 55.3145 47.0459H11.1128C9.94535 47.0443 8.99982 46.0983 8.99832 44.9314V43.1894H48.8872C51.4737 43.1864 53.5696 41.0905 53.5726 38.504V19.5076H55.3145C56.482 19.5086 57.428 20.4546 57.429 21.6221V44.9314Z" fill="#E6C643"/>
</svg>
