<svg width="20" height="20" viewBox="0 0 20 20" fill="none" xmlns="http://www.w3.org/2000/svg">
<path d="M11.1049 10.001L19.7712 1.33469C20.0763 1.02958 20.0763 0.534892 19.7712 0.229814C19.4661 -0.0752635 18.9714 -0.0753026 18.6663 0.229814L9.99999 8.89613L1.33372 0.229814C1.0286 -0.0753026 0.533915 -0.0753026 0.228837 0.229814C-0.0762401 0.534931 -0.0762792 1.02962 0.228837 1.33469L8.89511 10.001L0.228837 18.6673C-0.0762792 18.9724 -0.0762792 19.4671 0.228837 19.7722C0.381376 19.9247 0.581337 20.0009 0.781297 20.0009C0.981258 20.0009 1.18118 19.9247 1.33376 19.7722L9.99999 11.1059L18.6663 19.7722C18.8188 19.9247 19.0188 20.0009 19.2187 20.0009C19.4187 20.0009 19.6186 19.9247 19.7712 19.7722C20.0763 19.467 20.0763 18.9724 19.7712 18.6673L11.1049 10.001Z" fill="white"/>
</svg>
