<svg width="60" height="60" viewBox="0 0 60 60" fill="none" xmlns="http://www.w3.org/2000/svg">
<g clip-path="url(#clip0)">
<path d="M55.0207 5.60156H23.083C20.3342 5.60448 18.1067 7.83202 18.1038 10.5808V13.7799H4.97925C2.23045 13.7833 0.00291753 16.0103 0 18.7591V41.2903C0.00291753 44.0391 2.23045 46.2666 4.97925 46.2695H6.44969V53.1286C6.44969 53.5843 6.69865 54.0034 7.09884 54.2212C7.49903 54.4391 7.98626 54.4211 8.36894 54.1741L20.6221 46.2695H33.4582C36.207 46.2666 38.4346 44.0391 38.4375 41.2903V37.3472H40.2201L51.7779 46.7801C52.1504 47.084 52.6644 47.1462 53.0986 46.9401C53.5328 46.7339 53.8095 46.2963 53.8095 45.8154V37.3472H55.0207C57.7695 37.3443 59.9971 35.1168 60 32.368V10.5808C59.9971 7.83202 57.7695 5.60448 55.0207 5.60156V5.60156ZM35.9484 41.2903C35.9464 42.6649 34.8329 43.7784 33.4587 43.7799H20.2554C20.0162 43.7799 19.7818 43.8494 19.5805 43.9793L8.93932 50.8447V45.0247C8.93932 44.3371 8.38207 43.7799 7.6945 43.7799H4.97925C3.6051 43.7784 2.49109 42.6649 2.48963 41.2903V18.7591C2.49109 17.385 3.6051 16.271 4.97925 16.2695H18.1038V32.368C18.1067 35.1168 20.3342 37.3443 23.083 37.3472H35.9484V41.2903ZM57.5104 32.368C57.5089 33.7421 56.3949 34.8561 55.0207 34.8576H52.5647C51.8776 34.8576 51.3199 35.4148 51.3199 36.1024V43.193L41.4499 35.1382C41.2276 34.9568 40.9495 34.8576 40.6626 34.8576H23.083C21.7084 34.8561 20.5949 33.7421 20.5934 32.368V10.5808C20.5949 9.20666 21.7084 8.09265 23.083 8.09119H55.0207C56.3949 8.09265 57.5089 9.20666 57.5104 10.5808V32.368Z" fill="#E6C643"/>
</g>
<defs>
<clipPath id="clip0">
<rect width="60" height="60" fill="white"/>
</clipPath>
</defs>
</svg>
