<svg width="60" height="60" viewBox="0 0 60 60" fill="none" xmlns="http://www.w3.org/2000/svg">
<g clip-path="url(#clip0)">
<path d="M52.0917 37.2041C50.375 36.0361 48.1236 36.0361 46.3928 37.2041C45.5486 36.6271 44.5636 36.3316 43.5504 36.3316C40.7362 36.3316 38.4707 38.6112 38.4707 41.4114C38.4707 44.2116 40.7362 46.5052 43.5504 46.5052C44.5636 46.5052 45.5486 46.2097 46.3928 45.6328C48.7146 47.2087 51.8806 46.5896 53.4566 44.2678C55.0326 41.9461 54.4135 38.78 52.0917 37.2041ZM50.9519 42.8889C50.1499 43.8457 48.7287 43.9723 47.7718 43.1703C47.6592 43.0859 47.5748 42.9874 47.4763 42.8748C47.209 42.5512 46.8009 42.3682 46.3928 42.3823C45.9707 42.3823 45.5767 42.5652 45.3093 42.8889C44.8872 43.4095 44.2399 43.7191 43.5645 43.705C42.3122 43.705 41.285 42.6919 41.285 41.4395C41.2709 40.1731 42.284 39.16 43.5504 39.16C44.2259 39.16 44.8731 39.4695 45.2953 39.9902C45.7878 40.5952 46.6743 40.6937 47.2793 40.2012C47.3497 40.145 47.42 40.0746 47.4904 39.9902C48.2925 39.0333 49.7137 38.9067 50.6705 39.7088C51.6273 40.5108 51.754 41.932 50.9519 42.8889Z" fill="#E6C643"/>
<path d="M59.9438 25.2713C59.9438 25.1447 60 25.0039 60 24.8632C60 24.7225 59.9438 24.5959 59.9438 24.4692V21.458C59.9438 18.1512 57.228 15.5058 53.9213 15.5058H52.2046V13.8032C52.2046 10.4964 49.5732 7.7666 46.2665 7.7666H5.96628C2.65953 7.7666 5.55821e-05 10.4964 5.55821e-05 13.8032V38.5405C-0.0140157 41.8191 2.64546 44.4786 5.92407 44.4927C5.93814 44.4927 5.95221 44.4927 5.96628 44.4927H7.59855V46.1953C7.61263 49.5161 10.2862 52.2178 13.607 52.2319H53.9213C57.2421 52.2038 59.9297 49.5161 59.9438 46.1953V31.8707C59.9438 31.7441 60 31.6034 60 31.4767C60 31.3501 59.9438 31.2094 59.9438 31.0827V25.2713ZM7.59855 21.458V41.6784H5.96628C4.24959 41.6925 2.82839 40.3135 2.81431 38.5968C2.81431 38.5827 2.81431 38.5687 2.81431 38.5546V13.8032C2.81431 12.0583 4.20737 10.5809 5.96628 10.5809H46.2805C48.0395 10.5809 49.4044 12.0583 49.4044 13.8032V15.5058H13.607C10.3002 15.5058 7.59855 18.1512 7.59855 21.458ZM57.1295 46.1953C57.1154 47.9683 55.6942 49.4036 53.9213 49.4176H13.607C11.834 49.4036 10.4128 47.9683 10.4128 46.1953V32.8135H57.1295V46.1953ZM57.1295 29.9993H10.4128V26.3407H57.1295V29.9993ZM57.1436 23.5265H57.1295H10.4128V21.458C10.4269 19.7131 11.8481 18.306 13.607 18.3201H13.6211H53.9353C55.6942 18.3201 57.1436 19.6991 57.1436 21.458V23.5265Z" fill="#E6C643"/>
</g>
<defs>
<clipPath id="clip0">
<rect width="60" height="60" fill="white"/>
</clipPath>
</defs>
</svg>
