<svg width="60" height="60" viewBox="0 0 60 60" fill="none" xmlns="http://www.w3.org/2000/svg">
<path d="M18.3044 34C18.1131 34 17.927 33.9379 17.774 33.8231L6.35358 25.2477C6.26071 25.178 6.18248 25.0907 6.12334 24.9907C6.06419 24.8907 6.0253 24.7801 6.00889 24.6651C5.97573 24.4328 6.03613 24.1968 6.17679 24.0091C6.31745 23.8214 6.52685 23.6973 6.75893 23.6641C6.99101 23.6309 7.22675 23.6914 7.4143 23.8322L18.0869 31.8458L28.3892 16.3813C28.5211 16.1905 28.7225 16.0593 28.9502 16.0157C29.1778 15.9722 29.4134 16.0199 29.6063 16.1485C29.7991 16.2772 29.9338 16.4765 29.9813 16.7035C30.0287 16.9305 29.9852 17.1672 29.8601 17.3624L19.0407 33.6054C18.974 33.7055 18.8877 33.791 18.7869 33.8565C18.6862 33.9221 18.5731 33.9664 18.4547 33.9867C18.405 33.9953 18.3548 33.9997 18.3044 34Z" fill="#E6C643" stroke="#E6C643" stroke-width="1.2"/>
<path d="M49.1864 46H10.8136C10.6316 46 10.4547 45.9393 10.3107 45.8274C10.1667 45.7156 10.0638 45.5589 10.0181 45.3819L5.03078 26.049C5.00111 25.9432 4.99278 25.8326 5.00627 25.7235C5.01976 25.6145 5.05481 25.5092 5.10935 25.4139C5.1639 25.3187 5.23684 25.2353 5.32391 25.1687C5.41098 25.1021 5.51041 25.0537 5.61637 25.0262C5.72234 24.9987 5.8327 24.9928 5.94099 25.0087C6.04928 25.0246 6.15331 25.0621 6.24697 25.1189C6.34064 25.1758 6.42206 25.2508 6.48646 25.3397C6.55085 25.4285 6.59693 25.5294 6.62198 25.6364L11.4506 44.3487H48.5494L53.378 25.6364C53.4031 25.5294 53.4492 25.4285 53.5135 25.3397C53.5779 25.2508 53.6594 25.1758 53.753 25.1189C53.8467 25.0621 53.9507 25.0246 54.059 25.0087C54.1673 24.9928 54.2777 24.9987 54.3836 25.0262C54.4896 25.0537 54.589 25.1021 54.6761 25.1687C54.7632 25.2353 54.8361 25.3187 54.8907 25.4139C54.9452 25.5092 54.9802 25.6145 54.9937 25.7235C55.0072 25.8326 54.9989 25.9432 54.9692 26.049L49.9819 45.3819C49.9362 45.5589 49.8333 45.7156 49.6893 45.8274C49.5453 45.9393 49.3684 46 49.1864 46Z" fill="#E6C643" stroke="#E6C643" stroke-width="1.2"/>
<path d="M41.2189 34C41.171 34 41.1232 33.9958 41.0759 33.9876C40.9625 33.9673 40.8542 33.9231 40.7577 33.8576C40.6612 33.7922 40.5785 33.7069 40.5147 33.607L30.154 17.3911C30.0891 17.2948 30.0433 17.1858 30.0193 17.0708C29.9953 16.9557 29.9937 16.8367 30.0144 16.721C30.0351 16.6052 30.0779 16.4949 30.1401 16.3966C30.2022 16.2983 30.2827 16.214 30.3765 16.1486C30.4704 16.0832 30.5759 16.0381 30.6867 16.0159C30.7976 15.9936 30.9116 15.9948 31.022 16.0192C31.1324 16.0436 31.2371 16.0909 31.3297 16.1581C31.4224 16.2253 31.5013 16.3113 31.5616 16.4108L41.4255 31.8494L51.6457 23.8492C51.7346 23.7796 51.8358 23.729 51.9435 23.7002C52.0511 23.6714 52.1632 23.665 52.2732 23.6814C52.3833 23.6978 52.4892 23.7367 52.5848 23.7958C52.6805 23.8549 52.764 23.9331 52.8307 24.0258C52.8974 24.1186 52.9459 24.2242 52.9735 24.3366C53.0011 24.4489 53.0072 24.5659 52.9915 24.6807C52.9758 24.7955 52.9385 24.906 52.8819 25.0058C52.8253 25.1056 52.7503 25.1928 52.6614 25.2623L41.7277 33.8234C41.5809 33.9382 41.4024 34.0002 41.2189 34Z" fill="#E6C643" stroke="#E6C643" stroke-width="1.2"/>
<path d="M50.2939 51H9.7066C9.43622 51 9.1697 50.9344 8.92901 50.8086C8.68831 50.6827 8.48034 50.5002 8.32222 50.2761C8.16409 50.052 8.06035 49.7927 8.01955 49.5196C7.97874 49.2465 8.00203 48.9674 8.08751 48.7053L9.42969 44.5918C9.48583 44.4196 9.59356 44.2698 9.73763 44.1636C9.88169 44.0574 10.0548 44.0001 10.2325 44H49.7681C49.9457 44.0001 50.1188 44.0574 50.2629 44.1636C50.407 44.2698 50.5147 44.4196 50.5708 44.5918L51.9122 48.7053C51.9978 48.9674 52.0213 49.2464 51.9806 49.5196C51.9399 49.7927 51.8363 50.052 51.6782 50.2761C51.5201 50.5003 51.3122 50.6828 51.0715 50.8087C50.8308 50.9345 50.5643 51.0001 50.2939 51ZM10.843 45.7305L9.69474 49.2522L50.2939 49.2695L49.155 45.7305H10.843Z" fill="#E6C643" stroke="#E6C643" stroke-width="1.2"/>
<path d="M55 26C54.2088 26 53.4354 25.7654 52.7776 25.3258C52.1198 24.8863 51.6071 24.2615 51.3044 23.5305C51.0017 22.7996 50.9225 21.9953 51.0769 21.2193C51.2313 20.4434 51.6124 19.7307 52.1719 19.1713C52.7314 18.6119 53.4442 18.231 54.2202 18.0768C54.9961 17.9225 55.8004 18.0018 56.5313 18.3047C57.2622 18.6076 57.8869 19.1204 58.3263 19.7783C58.7657 20.4362 59.0002 21.2097 59 22.0008C58.9985 23.0611 58.5765 24.0776 57.8267 24.8273C57.0768 25.5769 56.0603 25.9987 55 26ZM55 19.6646C54.5381 19.6646 54.0866 19.8015 53.7026 20.0581C53.3186 20.3147 53.0192 20.6794 52.8424 21.1061C52.6657 21.5328 52.6194 22.0023 52.7094 22.4553C52.7994 22.9083 53.0218 23.3244 53.3483 23.6511C53.6748 23.9777 54.0909 24.2002 54.5439 24.2904C54.9968 24.3806 55.4664 24.3345 55.8932 24.1579C56.3199 23.9812 56.6847 23.682 56.9414 23.2981C57.1981 22.9141 57.3352 22.4627 57.3354 22.0008C57.3348 21.3816 57.0885 20.788 56.6507 20.3502C56.2128 19.9123 55.6192 19.6652 55 19.6646Z" fill="#E6C643" stroke="#E6C643" stroke-width="1.2"/>
<path d="M4.99917 26C4.20808 25.9998 3.4348 25.7651 2.77711 25.3255C2.11943 24.8858 1.60687 24.2611 1.30424 23.5302C1.00162 22.7992 0.922527 21.995 1.07696 21.2191C1.2314 20.4433 1.61243 19.7306 2.17187 19.1713C2.73131 18.612 3.44404 18.2311 4.21995 18.0768C4.99585 17.9225 5.80007 18.0018 6.53093 18.3046C7.26178 18.6073 7.88645 19.12 8.32594 19.7778C8.76542 20.4356 9 21.2089 9 22C8.9989 23.0607 8.577 24.0776 7.82692 24.8275C7.07683 25.5774 6.05984 25.9991 4.99917 26ZM4.99917 19.6646C4.5373 19.6648 4.08586 19.8019 3.70191 20.0586C3.31796 20.3153 3.01876 20.6801 2.84212 21.1069C2.66549 21.5336 2.61936 22.0032 2.70956 22.4561C2.79977 22.9091 3.02226 23.3252 3.34891 23.6517C3.67555 23.9782 4.09169 24.2006 4.54469 24.2906C4.99769 24.3806 5.46722 24.3343 5.89392 24.1576C6.32061 23.9808 6.6853 23.6814 6.94188 23.2974C7.19847 22.9134 7.33541 22.4619 7.33541 22C7.33453 21.3808 7.08806 20.7873 6.65007 20.3496C6.21208 19.9119 5.61836 19.665 4.99917 19.6646Z" fill="#E6C643" stroke="#E6C643" stroke-width="1.2"/>
<path d="M30.0008 17C29.2096 17.0002 28.4362 16.7657 27.7783 16.3263C27.1204 15.8868 26.6076 15.2622 26.3047 14.5313C26.0018 13.8004 25.9225 12.9961 26.0768 12.2201C26.231 11.4442 26.6119 10.7313 27.1713 10.1719C27.7307 9.61237 28.4434 9.23133 29.2193 9.07692C29.9953 8.92251 30.7996 9.00168 31.5305 9.30441C32.2615 9.60713 32.8863 10.1198 33.3258 10.7776C33.7654 11.4355 34 12.2088 34 13C33.9989 14.0604 33.5773 15.0771 32.8275 15.827C32.0778 16.5769 31.0612 16.9987 30.0008 17ZM30.0008 10.6045C29.527 10.6043 29.0638 10.7447 28.6697 11.0078C28.2757 11.2709 27.9685 11.645 27.7871 12.0827C27.6056 12.5204 27.5581 13.0021 27.6504 13.4668C27.7428 13.9316 27.9709 14.3585 28.3058 14.6936C28.6408 15.0287 29.0677 15.2569 29.5324 15.3494C29.9971 15.4419 30.4788 15.3945 30.9165 15.2132C31.3543 15.032 31.7285 14.7249 31.9917 14.331C32.255 13.937 32.3955 13.4738 32.3955 13C32.3947 12.3651 32.1421 11.7565 31.6932 11.3076C31.2443 10.8587 30.6357 10.6053 30.0008 10.6045Z" fill="#E6C643" stroke="#E6C643" stroke-width="1.2"/>
</svg>
