<svg width="60" height="60" viewBox="0 0 60 60" fill="none" xmlns="http://www.w3.org/2000/svg">
<g clip-path="url(#clip0)">
<path d="M29.6842 17.9795H18.9289C18.2405 17.9795 17.6826 18.5374 17.6826 19.2257C17.6826 19.9141 18.2405 20.472 18.9289 20.472H29.6842C30.3721 20.472 30.9305 19.9141 30.9305 19.2257C30.9305 18.5374 30.3721 17.9795 29.6842 17.9795Z" fill="#E6C643"/>
<path d="M29.6846 24.2959H9.47087C8.78299 24.2959 8.22461 24.8538 8.22461 25.5422C8.22461 26.2305 8.78299 26.7884 9.47087 26.7884H29.6846C30.3725 26.7884 30.9309 26.2305 30.9309 25.5422C30.9309 24.8538 30.3725 24.2959 29.6846 24.2959Z" fill="#E6C643"/>
<path d="M29.6845 31.2446H22.1213C21.4329 31.2446 20.875 31.8025 20.875 32.4909C20.875 33.1793 21.4329 33.7372 22.1213 33.7372H29.6845C30.3724 33.7372 30.9308 33.1793 30.9308 32.4909C30.9308 31.8025 30.3724 31.2446 29.6845 31.2446Z" fill="#E6C643"/>
<path d="M55.5346 25.8162C55.4387 25.7242 55.3287 25.6482 55.2084 25.5913L50.7968 18.9885C49.6445 17.2442 47.6924 16.1956 45.6015 16.198H39.7694C39.6019 12.8823 36.8665 10.2783 33.5459 10.2739H1.24626C0.557897 10.2739 0 10.8318 0 11.5202V42.1437C0 42.832 0.557897 43.3899 1.24626 43.3899H5.4115C6.00396 47.0036 9.12643 49.6558 12.7883 49.6558C16.4497 49.6558 19.5722 47.0036 20.1651 43.3899H38.2607C38.8532 47.0036 41.9757 49.6563 45.6375 49.6563C49.2989 49.6563 52.4219 47.0036 53.0143 43.3899H58.7539C59.4418 43.3899 60.0002 42.832 60.0002 42.1437V32.7704C59.9963 31.0792 59.3089 29.4615 58.0943 28.2848L55.5346 25.8162ZM48.7215 20.3686L52.1278 25.4666H39.7777V18.6906H45.6015C46.8575 18.6896 48.0302 19.32 48.7215 20.3686ZM12.7883 47.1633C10.0358 47.1633 7.80471 44.9322 7.80471 42.1797C7.80471 39.4272 10.0358 37.1961 12.7883 37.1961C15.5408 37.1961 17.7719 39.4272 17.7719 42.1797C17.769 44.9307 15.5393 47.1603 12.7883 47.1633ZM45.637 47.1633C42.8845 47.1633 40.6534 44.9322 40.6534 42.1797C40.6534 39.4272 42.8845 37.1961 45.637 37.1961C48.3895 37.1961 50.6206 39.4272 50.6206 42.1797C50.6177 44.9307 48.3881 47.1603 45.637 47.1633ZM57.5077 40.8974H53.0012C52.3785 37.3173 49.2712 34.7031 45.637 34.7031C42.0029 34.7031 38.8955 37.3173 38.2734 40.8974H20.1524C19.5298 37.3173 16.4224 34.7036 12.7888 34.7036C9.15467 34.7036 6.04729 37.3173 5.42465 40.8974H2.49252V12.7664H33.5459C35.61 12.7689 37.2822 14.4416 37.2846 16.5052V26.7134C37.2846 27.4017 37.8425 27.9596 38.5309 27.9596H54.1666L56.3641 30.0793C57.0929 30.7851 57.5052 31.7554 57.5077 32.7704V40.8974Z" fill="#E6C643"/>
</g>
<defs>
<clipPath id="clip0">
<rect width="60" height="60" fill="white"/>
</clipPath>
</defs>
</svg>
