<svg width="60" height="60" viewBox="0 0 60 60" fill="none" xmlns="http://www.w3.org/2000/svg">
<path d="M47.7543 4.63949C47.5114 4.24192 47.0788 3.99951 46.6134 3.99951H12.6983C12.2323 3.99951 11.8002 4.24192 11.5573 4.63949L3.19634 18.3162C2.91684 18.7733 2.93722 19.3532 3.24806 19.7899L28.4558 55.1793L28.4647 55.2049L28.4725 55.2023L28.6402 55.4379C28.891 55.79 29.2969 55.9995 29.7295 55.9995H29.7311C30.1641 55.999 30.5706 55.7885 30.8208 55.4348L30.9875 55.1997L30.9948 55.2018L31.0037 55.1762L56.0657 19.7868C56.3744 19.3506 56.3943 18.7722 56.1153 18.3162L47.7543 4.63949ZM32.6624 6.67435H44.7436L41.4251 16.3894L32.6624 6.67435ZM38.9739 17.6652H20.4501L29.661 7.34045L38.9739 17.6652ZM17.9492 16.4511L14.5827 6.67487H26.6717L17.9492 16.4511ZM15.5387 17.6652H6.72901L12.3639 8.448L15.5387 17.6652ZM40.0762 20.3401L29.7248 50.6467L19.2887 20.3411L40.0762 20.3401ZM46.9587 8.46524L52.5826 17.6652H43.8157L46.9587 8.46524ZM6.9244 20.3401H16.4593L25.3823 46.2541L6.9244 20.3401ZM42.902 20.3401H52.3961L34.0573 46.2364L42.902 20.3401Z" fill="#E6C643"/>
</svg>
