<svg width="15" height="15" viewBox="0 0 15 15" fill="none" xmlns="http://www.w3.org/2000/svg">
<path d="M8.32868 7.501L14.8284 1.00127C15.0572 0.772428 15.0572 0.401413 14.8284 0.172605C14.5996 -0.0562035 14.2285 -0.0562328 13.9997 0.172605L7.49999 6.67234L1.00029 0.172605C0.771451 -0.0562328 0.400436 -0.0562328 0.171628 0.172605C-0.0571801 0.401442 -0.0572094 0.772457 0.171628 1.00127L6.67133 7.50097L0.171628 14.0007C-0.0572094 14.2295 -0.0572094 14.6006 0.171628 14.8294C0.286032 14.9438 0.436003 15.001 0.585973 15.001C0.735943 15.001 0.885885 14.9438 1.00032 14.8294L7.49999 8.32966L13.9997 14.8294C14.1141 14.9438 14.2641 15.001 14.414 15.001C14.564 15.001 14.714 14.9438 14.8284 14.8294C15.0572 14.6005 15.0572 14.2295 14.8284 14.0007L8.32868 7.501Z" fill="black"/>
</svg>
