<svg width="20" height="20" viewBox="0 0 20 20" fill="none" xmlns="http://www.w3.org/2000/svg">
<path d="M18.5675 3.23077C18.5726 3.21538 18.5624 3.2 18.5624 3.18462V0.512821C18.5726 0.241026 18.3572 0.0102564 18.0803 0C18.0752 0 18.0701 0 18.0649 0H1.92647C1.65468 0 1.42904 0.225641 1.43417 0.497436C1.43417 0.502564 1.43417 0.507692 1.43417 0.512821V3.18462C1.43417 3.2 1.42391 3.21538 1.42904 3.23077C1.42904 3.2359 1.42391 3.24615 1.42904 3.25128C1.42904 3.26154 1.42904 3.2718 1.42904 3.27692C1.42904 3.28718 1.42904 3.29231 1.43417 3.30256C1.43929 3.31282 1.43929 3.31795 1.43929 3.32308C1.43929 3.32821 1.44442 3.33846 1.44442 3.34872C1.44442 3.35385 1.44955 3.3641 1.44955 3.36923C1.45468 3.37949 1.45468 3.38462 1.45981 3.39487C1.46493 3.4 1.46493 3.41026 1.47006 3.41538C1.47519 3.42051 1.47519 3.43077 1.48032 3.4359C1.48545 3.44103 1.49058 3.45128 1.49058 3.45641C1.49058 3.46154 1.50083 3.4718 1.50083 3.47692C1.50596 3.48205 1.51109 3.49231 1.51622 3.49744C1.52134 3.50256 1.52647 3.50769 1.52647 3.51282C1.52647 3.51282 1.53673 3.51282 1.54186 3.51795L7.69058 10.7487V19.4872C7.68545 19.6821 7.79314 19.8615 7.97263 19.9487C8.03929 19.9795 8.11109 20 8.18801 20C8.30596 20 8.41878 19.959 8.50596 19.8872L12.1265 16.9487C12.2444 16.8513 12.3111 16.7026 12.306 16.5487V10.7487L18.4496 3.51795C18.4496 3.51795 18.4547 3.51795 18.4598 3.51282C18.4649 3.50769 18.4701 3.50256 18.4752 3.49744C18.4803 3.49231 18.4854 3.48205 18.4906 3.47692C18.4957 3.4718 18.5008 3.46154 18.506 3.45641C18.5111 3.45128 18.5162 3.44103 18.5162 3.4359C18.5213 3.43077 18.5265 3.42051 18.5265 3.41538C18.5316 3.41026 18.5316 3.4 18.5367 3.39487C18.5419 3.38462 18.5419 3.37949 18.547 3.36923C18.5521 3.3641 18.5521 3.35385 18.5521 3.34872C18.5572 3.33846 18.5572 3.33333 18.5572 3.32308C18.5572 3.31282 18.5624 3.30769 18.5624 3.30256C18.5624 3.29744 18.5675 3.28718 18.5675 3.27692C18.5675 3.26667 18.5726 3.25641 18.5726 3.25128C18.5726 3.24615 18.5624 3.2359 18.5675 3.23077ZM11.4137 10.2256C11.3316 10.3179 11.2854 10.4359 11.2803 10.559V16.3026L8.71622 18.4103V10.559C8.71109 10.4359 8.66493 10.3179 8.58288 10.2256L3.03417 3.69231H16.9624L11.4137 10.2256ZM17.5367 2.66667H2.45981V1.02564H17.5367V2.66667Z" fill="black"/>
</svg>
