<svg width="60" height="60" viewBox="0 0 60 60" fill="none" xmlns="http://www.w3.org/2000/svg">
<g clip-path="url(#clip0)">
<path d="M52.5315 12.697C52.5315 12.1471 52.0856 11.7012 51.5357 11.7012H8.5896C8.03965 11.7012 7.59375 12.1471 7.59375 12.697V39.2115C7.59375 39.7615 8.03965 40.2074 8.5896 40.2074H51.5357C52.0856 40.2074 52.5315 39.7615 52.5315 39.2115V12.697ZM50.4153 38.2157H9.58545V13.6929H50.4153V38.2157Z" fill="#E6C643"/>
<path d="M59.0022 42.8217H57.3859V12.3748C57.3859 9.08041 54.6872 6.34863 51.3928 6.34863H8.6072C5.31282 6.34863 2.61411 9.08041 2.61411 12.3748V42.8217H0.997796C0.735704 42.8168 0.482365 42.9175 0.295157 43.1008C0.107462 43.2836 0.00145877 43.5345 0 43.7966V47.6254C0 50.9198 2.68218 53.6515 5.97705 53.6515H54.023C57.3178 53.6515 60 50.9198 60 47.6254V43.7966C59.9985 43.5345 59.8925 43.2836 59.7048 43.1008C59.5176 42.9175 59.2643 42.8168 59.0022 42.8217ZM4.60581 12.3748C4.60581 10.1784 6.41079 8.34033 8.6072 8.34033H51.3928C53.5892 8.34033 55.3942 10.1784 55.3942 12.3748V42.8217H37.3045C37.0278 42.8178 36.7619 42.9306 36.5722 43.1319L35.5618 44.2522C34.8091 45.0759 33.7481 45.5496 32.6326 45.5593H27.3669C26.251 45.5471 25.19 45.0716 24.4382 44.2464L23.4273 43.146C23.2391 42.9408 22.9736 42.8231 22.6955 42.8217H4.60581V12.3748ZM58.0083 47.6254C58.0083 49.8218 56.2194 51.6598 54.023 51.6598H5.97705C3.78063 51.6598 1.9917 49.8218 1.9917 47.6254V44.8134H22.2588L22.9736 45.6079C24.1042 46.8386 25.6962 47.5432 27.3674 47.552H32.6331C34.3043 47.5432 35.8963 46.8386 37.0269 45.6079L37.7412 44.8134H58.0083V47.6254Z" fill="#E6C643"/>
<path d="M19.7253 33.8999L29.7003 37.1189C29.8972 37.1826 30.1097 37.1826 30.3072 37.1189L40.2759 33.8999C40.6848 33.7662 40.9596 33.3825 40.9547 32.9522V19.3302C40.9591 18.8999 40.6843 18.5162 40.2754 18.3825L30.3004 15.1635C30.1029 15.0998 29.89 15.0998 29.692 15.1635L19.7238 18.3825C19.3154 18.5162 19.0406 18.8999 19.046 19.3302V32.9522C19.0416 33.3825 19.3163 33.7662 19.7253 33.8999ZM21.0377 20.6976L29.0045 23.2742V34.8038L21.0377 32.2272V20.6976ZM30.9962 34.8033V23.2737L38.963 20.6971V32.2267L30.9962 34.8033ZM30.0003 17.1581L36.7359 19.3302L30.0003 21.5023L23.2647 19.3302L30.0003 17.1581Z" fill="#E6C643"/>
</g>
<defs>
<clipPath id="clip0">
<rect width="60" height="60" fill="white"/>
</clipPath>
</defs>
</svg>
