<svg width="20" height="20" viewBox="0 0 20 20" fill="none" xmlns="http://www.w3.org/2000/svg">
<g clip-path="url(#clip0)">
<path d="M10.0258 16.4263C9.68901 16.4264 9.39928 16.6645 9.33389 16.9947C9.26832 17.325 9.44526 17.6556 9.75636 17.7844C10.0677 17.913 10.4263 17.804 10.6132 17.5239C10.8002 17.244 10.7633 16.8707 10.525 16.6328C10.3927 16.5002 10.213 16.4259 10.0258 16.4263Z" fill="black"/>
<path d="M12.5965 0H7.45625C6.9527 0.000534553 6.54448 0.408753 6.54395 0.9123V2.80657H9.15345C9.4054 2.80657 9.6096 3.01077 9.6096 3.26272C9.6096 3.51467 9.4054 3.71887 9.15345 3.71887H6.54395V6.15232H7.64815C7.9001 6.15232 8.1043 6.35652 8.1043 6.60847C8.1043 6.86042 7.9001 7.06462 7.64815 7.06462H6.54395V9.49825H9.15345C9.4054 9.49825 9.6096 9.70245 9.6096 9.9544C9.6096 10.2064 9.4054 10.4106 9.15345 10.4106H6.54395V12.844H7.64815C7.9001 12.844 8.1043 13.0482 8.1043 13.3002C8.1043 13.5521 7.9001 13.7563 7.64815 13.7563H6.54395V19.0877C6.54448 19.5913 6.9527 19.9993 7.45625 20H12.5965C13.1002 19.9993 13.5083 19.5913 13.5088 19.0877V0.9123C13.5083 0.408753 13.1002 0.000534553 12.5965 0ZM11.1707 18.2763C10.5386 18.9083 9.51391 18.9083 8.88189 18.2763C8.24988 17.6443 8.24988 16.6195 8.88189 15.9873C9.51391 15.3553 10.5386 15.3553 11.1707 15.9873C11.4768 16.2895 11.6491 16.7017 11.6491 17.1318C11.6491 17.5619 11.4768 17.9741 11.1707 18.2763Z" fill="black"/>
</g>
<defs>
<clipPath id="clip0">
<rect width="20" height="20" fill="white"/>
</clipPath>
</defs>
</svg>
