<svg width="60" height="60" viewBox="0 0 60 60" fill="none" xmlns="http://www.w3.org/2000/svg">
<path d="M18.5392 4.09607C18.1032 3.18216 17.1811 2.60059 16.1687 2.60059C15.1564 2.60059 14.2343 3.18216 13.7988 4.09607L9.05544 14.0434C8.97133 14.2198 8.92773 14.4127 8.92773 14.6081V52.7594C8.96158 56.734 12.1936 59.9383 16.1682 59.9383C20.1434 59.9383 23.3754 56.734 23.4092 52.7594V14.6081C23.4092 14.4127 23.3651 14.2198 23.281 14.0434L18.5392 4.09607ZM20.7839 15.9671V48.5273H11.5546V15.9671H20.7839ZM16.1693 5.22692L20.0382 13.3408H12.2998L16.1693 5.22692ZM16.1682 57.3741C13.6209 57.371 11.5566 55.3067 11.5536 52.7594V51.1536H20.7834V52.7594C20.7803 55.3067 18.7161 57.371 16.1682 57.3741Z" fill="#E6C643"/>
<path d="M45.8094 0H34.5046C31.6054 0.00307713 29.256 2.35247 29.2529 5.25164V54.7484C29.256 57.6475 31.6054 59.9969 34.5046 60H45.8094C48.7081 59.9969 51.0575 57.6475 51.0611 54.7484V5.25164C51.0575 2.35247 48.7081 0.00307713 45.8094 0ZM48.4353 54.7484C48.4332 56.1977 47.2588 57.3726 45.8094 57.3742H34.5046C33.0547 57.3726 31.8803 56.1977 31.8788 54.7484V50.9686H38.5982C39.3234 50.9686 39.9111 50.3809 39.9111 49.6557C39.9111 48.9305 39.3234 48.3428 38.5982 48.3428H31.8788V43.5737H36.0575C36.7827 43.5737 37.3704 42.9855 37.3704 42.2608C37.3704 41.5357 36.7827 40.9479 36.0575 40.9479H31.8788V35.5763H38.5982C39.3234 35.5763 39.9111 34.988 39.9111 34.2634C39.9111 33.5382 39.3234 32.9505 38.5982 32.9505H31.8788V28.1809H36.0575C36.7827 28.1809 37.3704 27.5932 37.3704 26.868C37.3704 26.1428 36.7827 25.5551 36.0575 25.5551H31.8788V20.1834H38.5982C39.3234 20.1834 39.9111 19.5957 39.9111 18.8705C39.9111 18.1453 39.3234 17.5576 38.5982 17.5576H31.8788V12.7875H36.1888C36.914 12.7875 37.5017 12.1998 37.5017 11.4746C37.5017 10.75 36.914 10.1617 36.1888 10.1617H31.8788V5.25164C31.8803 3.80231 33.0547 2.62736 34.5046 2.62582H45.8094C47.2588 2.62736 48.4332 3.80231 48.4353 5.25164V54.7484Z" fill="#E6C643"/>
</svg>
