<svg width="20" height="20" viewBox="0 0 20 20" fill="none" xmlns="http://www.w3.org/2000/svg">
<path d="M18.1553 6.28125H10.3486V10.9176H19.6553V7.78125C19.6543 6.95312 18.9834 6.28223 18.1553 6.28125Z" fill="black"/>
<path d="M6.2916 5.27617L6.29004 5.28105H9.34844V2.34355C9.34844 0.963671 8.35274 0 6.92715 0C5.59219 0 4.50586 1.20215 4.50586 2.68008C4.50586 3.88242 5.25684 4.97441 6.2916 5.27617Z" fill="black"/>
<path d="M9.34805 6.28125H1.7998C0.97168 6.28223 0.300781 6.95312 0.299805 7.78125V10.9176H9.34805V6.28125Z" fill="black"/>
<path d="M14.7943 4.23105C14.7932 3.03711 13.8256 2.06953 12.6316 2.06836C11.4945 2.06836 10.4801 3.03594 10.4164 4.18125C10.4119 4.26035 10.3887 4.33711 10.3486 4.40547V5.28164H14.5279C14.7016 4.95859 14.7932 4.59785 14.7943 4.23105Z" fill="black"/>
<path d="M1.59277 18.5002C1.59375 19.3283 2.26484 19.9992 3.09277 20.0002H16.6041C17.4322 19.9992 18.1033 19.3283 18.1041 18.5002V11.918H1.59277V18.5002Z" fill="black"/>
</svg>
