<svg xmlns="http://www.w3.org/2000/svg" xmlns:xlink="http://www.w3.org/1999/xlink" zoomAndPan="magnify" viewBox="0 0 375 374.999991" width="23" height="23" preserveAspectRatio="xMidYMid meet" version="1.0">
  <defs>
    <clipPath id="id1">
      <path d="M 58 37.5 L 321 37.5 L 321 337.5 L 58 337.5 Z M 58 37.5 " clip-rule="nonzero"/>
    </clipPath>
  </defs>
  <!-- <rect x="-37.5" width="450" fill="#ffffff" y="-37.499999" height="449.999989" fill-opacity="1"/>
  <rect x="-37.5" width="450" fill="#ffffff" y="-37.499999" height="449.999989" fill-opacity="1"/>
  <rect x="-37.5" width="450" fill="#ffffff" y="-37.499999" height="449.999989" fill-opacity="1"/> -->
  <path fill="#fff" d="M 116.164062 206.90625 C 116.164062 246.46875 148.277344 278.546875 187.894531 278.546875 C 227.511719 278.546875 259.625 246.46875 259.625 206.90625 C 259.625 167.34375 227.511719 135.273438 187.894531 135.273438 C 148.273438 135.273438 116.164062 167.347656 116.164062 206.90625 Z M 220.9375 181.792969 L 221.65625 183.25 L 206.878906 190.074219 L 206.148438 188.855469 C 203.542969 184.558594 195.890625 181.191406 188.726562 181.191406 C 183.890625 181.191406 172.648438 182.054688 172.648438 190.03125 C 172.648438 195.773438 179.886719 197.09375 189.359375 198.21875 C 204.113281 200.035156 224.320312 202.523438 224.320312 224.210938 C 224.320312 240.1875 211.328125 248.59375 197.984375 250.070312 L 197.984375 261.304688 L 180.691406 261.304688 L 180.691406 250.609375 C 166.671875 248.964844 156.367188 241.984375 151.589844 230.828125 L 150.964844 229.359375 L 167.019531 222.570312 L 167.636719 224.035156 C 170.203125 230.125 179.078125 234.714844 188.277344 234.714844 C 192.417969 234.714844 205.914062 233.957031 205.914062 224.207031 C 205.914062 219.097656 200.144531 216.042969 187.765625 214.578125 C 173.90625 213.03125 154.910156 210.910156 154.910156 190.027344 C 154.910156 177.214844 164.515625 168.261719 180.691406 165.894531 L 180.691406 156.039062 L 197.984375 156.039062 L 197.984375 165.929688 C 205.484375 167.246094 215.402344 170.5 220.9375 181.792969 Z M 220.9375 181.792969 " fill-opacity="1" fill-rule="nonzero"/>
  <g clip-path="url(#id1)">
    <path fill="#fff" d="M 269.800781 103.632812 L 258.078125 118.679688 C 290.234375 143.664062 306.273438 184.117188 299.945312 224.261719 C 295.308594 253.722656 279.453125 279.613281 255.3125 297.167969 C 231.167969 314.726562 201.613281 321.835938 172.132812 317.207031 C 111.238281 307.628906 69.488281 250.359375 79.0625 189.550781 C 83.699219 160.085938 99.550781 134.195312 123.691406 116.644531 C 145.304688 100.933594 171.246094 93.621094 197.597656 95.570312 L 174.957031 119.289062 L 190.207031 133.816406 L 222.652344 99.796875 L 222.65625 99.808594 L 237.195312 84.566406 L 221.960938 70.050781 L 221.949219 70.054688 L 187.898438 37.644531 L 173.355469 52.886719 L 198.160156 76.484375 C 167.582031 74.40625 137.527344 82.992188 112.453125 101.222656 C 84.183594 121.777344 65.628906 152.089844 60.195312 186.585938 C 48.988281 257.777344 97.867188 324.828125 169.160156 336.042969 C 176.046875 337.121094 182.933594 337.65625 189.773438 337.65625 C 217.234375 337.65625 243.925781 329.035156 266.546875 312.578125 C 294.816406 292.027344 313.375 261.710938 318.804688 227.222656 C 326.214844 180.230469 307.4375 132.875 269.800781 103.632812 Z M 269.800781 103.632812 " fill-opacity="1" fill-rule="nonzero"/>
  </g>
</svg>