<svg width="60" height="60" viewBox="0 0 60 60" fill="none" xmlns="http://www.w3.org/2000/svg">
<g clip-path="url(#clip0)">
<path d="M17.7725 26.031L17.7703 26.0692C17.6225 28.6585 19.0728 31.0841 21.4663 32.247L21.4908 32.259C22.3346 32.6626 23.0263 33.3281 23.4626 34.1555L23.4725 34.1735C24.6784 36.4699 27.1728 37.8619 29.8319 37.7222L29.8722 37.7201C30.8366 37.6661 31.7939 37.9148 32.6099 38.4319C34.8615 39.8402 37.7196 39.8402 39.9713 38.4319C40.7873 37.9148 41.7445 37.6661 42.7089 37.7201L42.7492 37.7222C45.404 37.863 47.9016 36.4699 49.1103 34.1697L49.1163 34.1572C49.5543 33.3275 50.2476 32.661 51.0941 32.2568L51.1137 32.247C53.5072 31.0836 54.9581 28.6585 54.8097 26.0687L54.8075 26.0327C54.7584 25.1207 55.0115 24.218 55.5286 23.4647C57.0172 21.2938 57.0172 18.4313 55.5292 16.2598C55.0126 15.5071 54.7584 14.6049 54.8075 13.6929L54.8097 13.6548C54.9581 11.065 53.5072 8.63988 51.1116 7.47589L51.0897 7.46498C50.2476 7.06243 49.5576 6.40026 49.1207 5.57499L49.1081 5.55044C47.9016 3.25409 45.404 1.86265 42.7492 2.00174L42.7083 2.00392C41.7445 2.05792 40.7873 1.80919 39.9718 1.29211H39.9707C37.7191 -0.116249 34.8609 -0.116249 32.6093 1.29211C31.7933 1.80865 30.836 2.05737 29.8717 2.00337L29.8313 2.00119C27.1761 1.86047 24.679 3.25355 23.473 5.54935L23.4637 5.56626C23.0268 6.39535 22.3346 7.06134 21.4897 7.46552L21.4668 7.47643C19.0734 8.63933 17.6225 11.065 17.7709 13.6548L17.773 13.6908C17.8221 14.6027 17.569 15.5055 17.0519 16.2582C15.5634 18.4296 15.5634 21.2927 17.0519 23.4636C17.5685 24.2163 17.8221 25.119 17.7725 26.031ZM18.8907 17.5269C19.6887 16.3651 20.0797 14.972 20.0034 13.5648L20.0012 13.5266C19.9227 11.8106 20.8859 10.2168 22.441 9.48751L22.4601 9.47824C23.7359 8.86733 24.7804 7.86152 25.4394 6.61025L25.4503 6.58953C26.2515 5.06335 27.9299 4.13827 29.7124 4.23318L29.7517 4.23481C31.178 4.315 32.5935 3.94736 33.8 3.18264C35.3235 2.22974 37.2565 2.22974 38.78 3.18264C39.9865 3.94627 41.402 4.31445 42.8278 4.23536L42.8671 4.23318C44.6583 4.13936 46.3285 5.06335 47.1276 6.58516L47.1423 6.61298C47.8012 7.86261 48.8447 8.86679 50.1188 9.47715L50.1374 9.48642C51.717 10.2544 52.6759 11.84 52.5794 13.5271L52.5772 13.5669C52.5008 14.9742 52.8925 16.3667 53.6904 17.5285C54.6548 18.9353 54.6543 20.7898 53.6894 22.196C52.8919 23.3583 52.5008 24.7514 52.5772 26.1587L52.5794 26.1963C52.6759 27.8834 51.717 29.4696 50.1368 30.2381L50.1205 30.2457C48.8436 30.8577 47.7979 31.8646 47.1385 33.1181L47.1303 33.1345C46.3285 34.6606 44.6529 35.5863 42.8676 35.4908L42.8289 35.4886C41.4025 35.409 39.9865 35.7772 38.7794 36.5413C37.2565 37.4937 35.3235 37.4937 33.8006 36.5413C32.7031 35.8459 31.43 35.4772 30.1308 35.4783C30.0048 35.4783 29.8782 35.4815 29.7517 35.4886L29.7124 35.4903C27.9533 35.6021 26.2892 34.6814 25.4486 33.1317L25.4372 33.1105C24.7794 31.8614 23.7365 30.8577 22.4628 30.2474L22.4421 30.237C20.8619 29.469 19.903 27.8828 20.0001 26.1963L20.0023 26.1565C20.0781 24.7492 19.6865 23.3561 18.889 22.1949C17.9252 20.7882 17.9258 18.9336 18.8907 17.528V17.5269Z" fill="#E6C643"/>
<path d="M29.0825 31.4106C29.6056 31.7373 30.2945 31.5775 30.6212 31.0544L43.8544 9.85489C44.0704 9.51617 44.0884 9.08744 43.9008 8.73235C43.7131 8.37672 43.3488 8.14981 42.9473 8.13727C42.5459 8.12472 42.1684 8.32872 41.959 8.67181L28.7263 29.8713C28.3996 30.395 28.5589 31.0839 29.0825 31.4106Z" fill="#E6C643"/>
<path d="M30.267 19.917C32.9872 19.917 35.2007 17.3932 35.2007 14.2913C35.2007 11.1893 32.9872 8.66602 30.267 8.66602C27.5469 8.66602 25.334 11.1893 25.334 14.2913C25.334 17.3932 27.5469 19.917 30.267 19.917ZM30.267 10.9002C31.7556 10.9002 32.9665 12.4214 32.9665 14.2913C32.9665 16.1611 31.7556 17.6829 30.267 17.6829C28.7791 17.6829 27.5682 16.1605 27.5682 14.2913C27.5682 12.422 28.7791 10.9002 30.267 10.9002Z" fill="#E6C643"/>
<path d="M37.3779 25.4343C37.3779 28.5363 39.5908 31.0596 42.311 31.0596C45.0311 31.0596 47.2446 28.5358 47.2446 25.4343C47.2446 22.3334 45.0317 19.8091 42.3115 19.8091C39.5908 19.8091 37.3779 22.3318 37.3779 25.4343ZM45.0104 25.4343C45.0104 27.3041 43.7995 28.8254 42.311 28.8254C40.823 28.8254 39.6121 27.3041 39.6121 25.4343C39.6121 23.5645 40.823 22.0432 42.311 22.0432C43.7995 22.0432 45.0104 23.5634 45.0104 25.4343Z" fill="#E6C643"/>
<path d="M59.855 43.9837C58.3757 41.3585 55.0954 40.3587 52.4036 41.7125L43.6529 45.847C42.4447 43.6003 40.1271 42.1701 37.5766 42.0981L29.4984 41.8756C28.2194 41.839 26.9643 41.5145 25.827 40.9276L25.005 40.5016C20.7963 38.3078 15.7798 38.3132 11.5755 40.5158L11.6267 38.6536C11.6436 38.0367 11.1576 37.5229 10.5407 37.506L1.6826 37.2621C1.06569 37.2452 0.552425 37.7312 0.535516 38.3481L0.00042818 57.7875C-0.0164809 58.4044 0.469516 58.9182 1.08642 58.9351L9.94455 59.1789H9.97564C10.5805 59.1784 11.0753 58.6967 11.0922 58.0924L11.1173 57.1624L13.4185 55.9302C14.3218 55.4442 15.3783 55.3286 16.3651 55.6078L30.1066 59.4647C30.1306 59.4718 30.1546 59.4773 30.1792 59.4827C31.1724 59.6905 32.1848 59.7947 33.1999 59.7942C35.3489 59.7953 37.4729 59.3322 39.4262 58.4355C39.4742 58.4136 39.5206 58.3885 39.5647 58.3602L59.489 45.4717C59.9859 45.151 60.1463 44.4981 59.855 43.9837ZM2.2646 56.732L2.73805 39.5269L9.3631 39.709L8.8891 56.9147L2.2646 56.732ZM38.4193 56.4391C35.9926 57.5344 33.2822 57.8365 30.6739 57.3031L16.9689 53.4571C15.4269 53.0208 13.7753 53.2019 12.3642 53.9606L11.1882 54.59L11.5035 43.1503C15.2294 40.6718 20.0087 40.417 23.9774 42.4848L24.7994 42.9108C26.2361 43.6526 27.8212 44.0623 29.4373 44.1086L37.5155 44.3312C39.7846 44.3961 41.7116 46.0117 42.172 48.235L30.1393 47.9039C29.5224 47.887 29.0092 48.373 28.9923 48.9899C28.9753 49.6068 29.4613 50.1206 30.0783 50.1375L43.3573 50.503H43.3889C43.9933 50.5024 44.488 50.0208 44.5049 49.4164C44.5185 48.931 44.482 48.445 44.3969 47.9672L53.3707 43.7263L53.3968 43.7137C54.6699 43.069 56.2097 43.2845 57.2565 44.2537L38.4193 56.4391Z" fill="#E6C643"/>
</g>
<defs>
<clipPath id="clip0">
<rect width="60" height="60" fill="white"/>
</clipPath>
</defs>
</svg>
