<svg width="20" height="20" viewBox="0 0 20 20" fill="none" xmlns="http://www.w3.org/2000/svg">
<path d="M17.4965 14.428C17.4965 15.4286 16.6854 16.2397 15.6848 16.2397C14.6841 16.2397 13.873 15.4286 13.873 14.428C13.873 13.4273 14.6841 12.6162 15.6848 12.6162C16.6854 12.6162 17.4965 13.4273 17.4965 14.428Z" fill="black"/>
<path d="M5.53223 14.1377C5.69257 15.1254 5.02182 16.0561 4.03411 16.2163C3.04622 16.3766 2.11567 15.7059 1.95533 14.7182C1.79498 13.7304 2.46573 12.7997 3.45362 12.6394C4.44133 12.4792 5.37188 13.1499 5.53223 14.1377Z" fill="black"/>
<path d="M16.8063 6.49872C16.555 6.11751 16.1287 5.88814 15.6721 5.88867H13.5547V8.35203H18.0446L16.8063 6.49872Z" fill="black"/>
<path d="M18.7856 9.25818H13.1014C12.8511 9.25818 12.6483 9.05537 12.6483 8.80512V5.09406C12.6474 4.34385 12.0395 3.73575 11.2891 3.73486H0V13.9616H1.06576C1.29212 12.6601 2.42177 11.7099 3.74292 11.7099C5.06406 11.7099 6.19371 12.6601 6.42007 13.9616H13.0076C13.2339 12.6599 14.3636 11.7097 15.6847 11.7097C17.0059 11.7097 18.1355 12.6599 18.3617 13.9616H20V11.0071C19.9993 10.6381 19.8494 10.2852 19.5843 10.0286L18.7856 9.25818ZM9.88531 11.3584H7.13577C6.88552 11.3584 6.6827 11.1556 6.6827 10.9053C6.6827 10.6551 6.88552 10.4523 7.13577 10.4523H9.88531C10.1354 10.4523 10.3384 10.6551 10.3384 10.9053C10.3384 11.1556 10.1354 11.3584 9.88531 11.3584ZM9.88531 8.83237H2.53681C2.28674 8.83237 2.08374 8.62956 2.08374 8.37931C2.08374 8.12906 2.28674 7.92624 2.53681 7.92624H9.88531C10.1354 7.92624 10.3384 8.12906 10.3384 8.37931C10.3384 8.62956 10.1354 8.83237 9.88531 8.83237ZM9.88531 6.53608H5.97532C5.72507 6.53608 5.52226 6.33308 5.52226 6.08301C5.52226 5.83277 5.72507 5.62995 5.97532 5.62995H9.88531C10.1354 5.62995 10.3384 5.83277 10.3384 6.08301C10.3384 6.33308 10.1354 6.53608 9.88531 6.53608Z" fill="black"/>
</svg>
