<svg width="20" height="20" viewBox="0 0 20 20" fill="none" xmlns="http://www.w3.org/2000/svg">
<path d="M9.99923 19.5832C8.1659 19.5832 6.4159 19.0832 4.9159 18.0832L1.58256 19.1665C1.4159 19.2498 1.24923 19.1665 1.1659 19.0832C1.08256 18.9998 0.999229 18.8332 1.08256 18.6665L2.1659 15.4998C1.08256 13.9165 0.499229 11.9998 0.499229 10.0832C0.415896 4.74984 4.74923 0.416504 9.99923 0.416504C15.2492 0.416504 19.5826 4.74984 19.5826 9.99984C19.5826 15.2498 15.2492 19.5832 9.99923 19.5832ZM4.99923 17.2498C5.08256 17.2498 5.1659 17.2498 5.24923 17.3332C6.6659 18.2498 8.33256 18.7498 10.0826 18.7498C14.9159 18.7498 18.8326 14.8332 18.8326 9.99984C18.8326 5.1665 14.8326 1.24984 9.99923 1.24984C5.1659 1.24984 1.24923 5.1665 1.24923 9.99984C1.24923 11.8332 1.83256 13.6665 2.9159 15.1665C2.99923 15.2498 2.99923 15.4165 2.99923 15.5832L2.08256 18.2498L4.83256 17.4165C4.9159 17.2498 4.9159 17.2498 4.99923 17.2498ZM12.9992 15.5832C12.3326 15.5832 11.4992 15.3332 10.1659 14.8332C7.9159 13.9165 6.24923 11.8332 5.49923 10.7498L5.4159 10.6665C4.99923 9.99984 4.24923 8.83317 4.24923 7.58317C4.24923 6.1665 4.99923 5.4165 5.24923 5.08317C5.58256 4.74984 5.99923 4.58317 6.49923 4.58317C6.58256 4.58317 6.6659 4.58317 6.74923 4.58317C7.24923 4.58317 7.49923 4.74984 7.74923 5.33317L7.99923 5.83317C8.24923 6.4165 8.58256 7.1665 8.58256 7.24984C8.74923 7.58317 8.74923 7.83317 8.58256 8.08317C8.49923 8.24984 8.4159 8.4165 8.24923 8.58317C8.1659 8.6665 8.08256 8.74984 7.99923 8.83317C7.9159 8.9165 7.83256 8.99984 7.74923 9.08317C7.9159 9.1665 7.83256 9.1665 7.83256 9.1665C8.24923 9.83317 8.74923 10.4165 9.24923 10.9165C10.1659 11.6665 10.8326 11.9998 11.1659 12.1665H11.2492C11.3326 12.1665 11.3326 12.2498 11.4159 12.1665C11.5826 11.9998 11.8326 11.6665 11.9992 11.3332L12.0826 11.2498C12.3326 10.9165 12.6659 10.8332 12.8326 10.8332C12.9159 10.8332 13.0826 10.8332 13.2492 10.9165C13.4992 10.9998 14.4159 11.4165 15.0826 11.8332L15.2492 11.9165C15.4992 11.9998 15.6659 12.0832 15.7492 12.3332C15.9159 12.6665 15.8326 13.4165 15.6659 13.9165C15.4159 14.6665 14.4159 15.3332 13.5826 15.4998C13.4159 15.4998 13.2492 15.5832 12.9992 15.5832ZM6.58256 5.4165C6.33256 5.4165 6.08256 5.49984 5.9159 5.58317C5.6659 5.83317 5.08256 6.4165 5.08256 7.49984C5.08256 8.49984 5.74923 9.58317 6.08256 9.99984L6.1659 10.0832C7.4159 11.9165 8.9159 13.2498 10.4992 13.9165C11.6659 14.4165 12.4992 14.6665 12.9992 14.6665C13.1659 14.6665 13.3326 14.6665 13.4159 14.5832C13.9992 14.4165 14.7492 13.9998 14.9159 13.5832C15.0826 13.1665 15.0826 12.8332 15.0826 12.6665C14.9992 12.6665 14.9992 12.5832 14.9159 12.5832L14.7492 12.4998C13.8326 11.9998 13.0826 11.6665 12.9992 11.6665C12.9159 11.6665 12.9159 11.5832 12.8326 11.7498L12.7492 11.8332C12.4992 12.1665 12.2492 12.4998 12.0826 12.7498C11.8326 12.9998 11.3326 13.0832 10.9992 12.9165H10.9159C10.5826 12.7498 9.74923 12.4165 8.74923 11.5832C8.1659 11.0832 7.6659 10.4165 7.1659 9.6665C6.83256 9.1665 7.1659 8.74984 7.33256 8.58317C7.33256 8.49984 7.4159 8.33317 7.49923 8.24984C7.58256 8.1665 7.58256 8.1665 7.6659 8.08317C7.83256 7.9165 7.83256 7.9165 7.9159 7.74984C7.9159 7.74984 7.9159 7.6665 7.9159 7.58317C7.83256 7.58317 7.49923 6.74984 7.24923 6.1665L7.08256 5.6665C6.99923 5.49984 6.9159 5.4165 6.9159 5.4165H6.83256C6.6659 5.4165 6.58256 5.4165 6.58256 5.4165Z" fill="white" stroke="white" stroke-width="0.3"/>
</svg>
