<svg width="30" height="30" viewBox="0 0 30 30" fill="none" xmlns="http://www.w3.org/2000/svg">
<g clip-path="url(#clip0)">
<path d="M15.3757 30C12.6018 30 9.95396 29.2435 7.6844 27.7304L2.64092 29.3696C2.38875 29.4957 2.13657 29.3696 2.01048 29.2435C1.8844 29.1174 1.75831 28.8652 1.8844 28.613L3.52353 23.8217C1.8844 21.4261 1.00179 18.5261 1.00179 15.6261C0.875702 7.55652 7.43222 1 15.3757 1C23.3192 1 29.8757 7.55652 29.8757 15.5C29.8757 23.4435 23.3192 30 15.3757 30ZM7.81048 26.4696C7.93657 26.4696 8.06266 26.4696 8.18875 26.5957C10.3322 27.9826 12.854 28.7391 15.5018 28.7391C22.8148 28.7391 28.7409 22.813 28.7409 15.5C28.7409 8.18696 22.6887 2.26087 15.3757 2.26087C8.06266 2.26087 2.13657 8.18696 2.13657 15.5C2.13657 18.2739 3.01918 21.0478 4.65831 23.3174C4.7844 23.4435 4.7844 23.6957 4.7844 23.9478L3.39744 27.9826L7.55831 26.7217C7.6844 26.4696 7.6844 26.4696 7.81048 26.4696ZM19.9148 23.9478C18.9061 23.9478 17.6453 23.5696 15.6279 22.813C12.2235 21.4261 9.70179 18.2739 8.56701 16.6348L8.44092 16.5087C7.81048 15.5 6.6757 13.7348 6.6757 11.8435C6.6757 9.7 7.81048 8.56522 8.18875 8.06087C8.69309 7.55652 9.32353 7.30435 10.0801 7.30435C10.2061 7.30435 10.3322 7.30435 10.4583 7.30435C11.2148 7.30435 11.5931 7.55652 11.9714 8.43913L12.3496 9.19565C12.7279 10.0783 13.2322 11.213 13.2322 11.3391C13.4844 11.8435 13.4844 12.2217 13.2322 12.6C13.1061 12.8522 12.9801 13.1043 12.7279 13.3565C12.6018 13.4826 12.4757 13.6087 12.3496 13.7348C12.2235 13.8609 12.0974 13.987 11.9714 14.113C12.2235 14.2391 12.0974 14.2391 12.0974 14.2391C12.7279 15.2478 13.4844 16.1304 14.2409 16.887C15.6279 18.0217 16.6366 18.5261 17.1409 18.7783H17.267C17.3931 18.7783 17.3931 18.9043 17.5192 18.7783C17.7714 18.5261 18.1496 18.0217 18.4018 17.5174L18.5279 17.3913C18.9061 16.887 19.4105 16.7609 19.6627 16.7609C19.7887 16.7609 20.0409 16.7609 20.2931 16.887C20.6714 17.013 22.0583 17.6435 23.067 18.2739L23.3192 18.4C23.6974 18.5261 23.9496 18.6522 24.0757 19.0304C24.3279 19.5348 24.2018 20.6696 23.9496 21.4261C23.5714 22.5609 22.0583 23.5696 20.7974 23.8217C20.5453 23.8217 20.2931 23.9478 19.9148 23.9478ZM10.2061 8.56522C9.82788 8.56522 9.44962 8.6913 9.19744 8.81739C8.81918 9.19565 7.93657 10.0783 7.93657 11.7174C7.93657 13.2304 8.94527 14.8696 9.44962 15.5L9.5757 15.6261C11.467 18.4 13.7366 20.4174 16.1322 21.4261C17.8974 22.1826 19.1583 22.5609 19.9148 22.5609C20.167 22.5609 20.4192 22.5609 20.5453 22.4348C21.4279 22.1826 22.5627 21.5522 22.8148 20.9217C23.067 20.2913 23.067 19.787 23.067 19.5348C22.9409 19.5348 22.9409 19.4087 22.8148 19.4087L22.5627 19.2826C21.1757 18.5261 20.0409 18.0217 19.9148 18.0217C19.7887 18.0217 19.7887 17.8957 19.6627 18.1478L19.5366 18.2739C19.1583 18.7783 18.7801 19.2826 18.5279 19.6609C18.1496 20.0391 17.3931 20.1652 16.8887 19.913H16.7627C16.2583 19.6609 14.9974 19.1565 13.4844 17.8957C12.6018 17.1391 11.8453 16.1304 11.0887 14.9957C10.5844 14.2391 11.0887 13.6087 11.3409 13.3565C11.3409 13.2304 11.467 12.9783 11.5931 12.8522C11.7192 12.7261 11.7192 12.7261 11.8453 12.6C12.0974 12.3478 12.0974 12.3478 12.2235 12.0957C12.2235 12.0957 12.2235 11.9696 12.2235 11.8435C12.0974 11.8435 11.5931 10.5826 11.2148 9.7L10.9627 8.94348C10.8366 8.69131 10.7105 8.56522 10.7105 8.56522H10.5844C10.3322 8.56522 10.2061 8.56522 10.2061 8.56522Z" fill="#E6C643" stroke="#E6C643" stroke-width="0.3"/>
</g>
<defs>
<clipPath id="clip0">
<rect width="30" height="30" fill="white"/>
</clipPath>
</defs>
</svg>
